<?xml version="1.0" encoding="UTF-8"?>
<svg xmlns="http://www.w3.org/2000/svg" xmlns:xlink="http://www.w3.org/1999/xlink" width="16pt" height="16pt" viewBox="0 0 16 16" version="1.1">
<g id="surface7231258">
<path style=" stroke:none;fill-rule:nonzero;fill:rgb(97.647059%,86.666667%,47.450981%);fill-opacity:1;" d="M 4.644531 0 C 2.085938 0 0 2.085938 0 4.644531 L 0 11.355469 C 0 13.914062 2.085938 16 4.644531 16 L 11.355469 16 C 13.914062 16 16 13.914062 16 11.355469 L 16 4.644531 C 16 2.085938 13.914062 0 11.355469 0 Z M 4.644531 1.230469 L 11.355469 1.230469 C 13.246094 1.230469 14.769531 2.75 14.769531 4.644531 L 14.769531 11.355469 C 14.769531 13.246094 13.25 14.769531 11.355469 14.769531 L 4.644531 14.769531 C 2.753906 14.769531 1.230469 13.25 1.230469 11.355469 L 1.230469 4.644531 C 1.230469 2.753906 2.75 1.230469 4.644531 1.230469 Z M 12.617188 2.460938 C 12.105469 2.460938 11.691406 2.875 11.691406 3.382812 C 11.691406 3.894531 12.105469 4.308594 12.617188 4.308594 C 13.125 4.308594 13.539062 3.894531 13.539062 3.382812 C 13.539062 2.875 13.125 2.460938 12.617188 2.460938 Z M 8 3.691406 C 5.628906 3.691406 3.691406 5.628906 3.691406 8 C 3.691406 10.371094 5.628906 12.308594 8 12.308594 C 10.371094 12.308594 12.308594 10.371094 12.308594 8 C 12.308594 5.628906 10.371094 3.691406 8 3.691406 Z M 8 4.921875 C 9.707031 4.921875 11.078125 6.292969 11.078125 8 C 11.078125 9.707031 9.707031 11.078125 8 11.078125 C 6.292969 11.078125 4.921875 9.707031 4.921875 8 C 4.921875 6.292969 6.292969 4.921875 8 4.921875 Z M 8 4.921875 "/>
</g>
</svg>
