<svg xmlns="http://www.w3.org/2000/svg" x="0px" y="0px"
width="128" height="128"
viewBox="0 0 172 172"
style=" fill:#000000;"><defs><linearGradient x1="134.375" y1="117.35506" x2="134.375" y2="142.02631" gradientUnits="userSpaceOnUse" id="color-1_43592_gr1"><stop offset="0" stop-color="#ff7a7a"></stop><stop offset="1" stop-color="#ffbb70"></stop></linearGradient><linearGradient x1="86" y1="21.05119" x2="86" y2="150.40325" gradientUnits="userSpaceOnUse" id="color-2_43592_gr2"><stop offset="0" stop-color="#ff0a0a"></stop><stop offset="1" stop-color="#ff8500"></stop></linearGradient><linearGradient x1="86" y1="21.05119" x2="86" y2="150.40325" gradientUnits="userSpaceOnUse" id="color-3_43592_gr3"><stop offset="0" stop-color="#ff0a0a"></stop><stop offset="1" stop-color="#ff8500"></stop></linearGradient></defs><g transform="translate(-19.78,-19.78) scale(1.23,1.23)"><g fill="none" fill-rule="nonzero" stroke="none" stroke-width="1" stroke-linecap="butt" stroke-linejoin="miter" stroke-miterlimit="10" stroke-dasharray="" stroke-dashoffset="0" font-family="none" font-weight="none" font-size="none" text-anchor="none" style="mix-blend-mode: normal"><path d="M0,172v-172h172v172z" fill="none"></path><g><path d="M123.625,139.75h16.125c2.96969,0 5.375,-2.40531 5.375,-5.375v-16.125z" fill="url(#color-1_43592_gr1)"></path><path d="M142.4375,51.0625h-18.8125v-2.6875c0,-2.96431 -2.41069,-5.375 -5.375,-5.375v-8.0625c0,-7.40944 -6.02806,-13.4375 -13.4375,-13.4375h-37.625c-7.40944,0 -13.4375,6.02806 -13.4375,13.4375v8.0625c-2.96431,0 -5.375,2.41069 -5.375,5.375v2.6875h-18.8125c-7.40944,0 -13.4375,6.02806 -13.4375,13.4375v72.5625c0,7.40944 6.02806,13.4375 13.4375,13.4375h112.875c7.40944,0 13.4375,-6.02806 13.4375,-13.4375v-72.5625c0,-7.40944 -6.02806,-13.4375 -13.4375,-13.4375zM102.125,51.0625v-2.6875h16.125v2.6875zM69.875,43v-5.375h32.25v5.375c-2.96431,0 -5.375,2.41069 -5.375,5.375v2.6875h-21.5v-2.6875c0,-2.96431 -2.41069,-5.375 -5.375,-5.375zM59.125,34.9375c0,-4.44513 3.61738,-8.0625 8.0625,-8.0625h37.625c4.44512,0 8.0625,3.61737 8.0625,8.0625v8.0625h-5.375v-5.375c0,-2.96431 -2.41069,-5.375 -5.375,-5.375h-32.25c-2.96431,0 -5.375,2.41069 -5.375,5.375v5.375h-5.375zM53.75,48.375h16.125v2.6875h-16.125zM29.5625,56.4375h112.875c4.44512,0 8.0625,3.61738 8.0625,8.0625v2.05325l-12.87312,25.74356c-1.37331,2.74662 -4.13338,4.45319 -7.20519,4.45319h-17.54669v-8.0625c0,-2.96431 -2.41069,-5.375 -5.375,-5.375h-5.375c-2.96431,0 -5.375,2.41069 -5.375,5.375v8.0625h-21.5v-8.0625c0,-2.96431 -2.41069,-5.375 -5.375,-5.375h-5.375c-2.96431,0 -5.375,2.41069 -5.375,5.375v8.0625h-17.54669c-3.07181,0 -5.83188,-1.70656 -7.20519,-4.45319l-12.87312,-25.74356v-2.05325c0,-4.44512 3.61737,-8.0625 8.0625,-8.0625zM107.5,88.6875v18.8125c0,1.4835 -1.204,2.6875 -2.6875,2.6875c-1.4835,0 -2.6875,-1.204 -2.6875,-2.6875v-18.8125zM69.875,88.6875v18.8125c0,1.4835 -1.204,2.6875 -2.6875,2.6875c-1.4835,0 -2.6875,-1.204 -2.6875,-2.6875v-18.8125zM142.4375,145.125h-112.875c-4.44513,0 -8.0625,-3.61738 -8.0625,-8.0625v-58.49075l8.06519,16.12769c2.28975,4.5795 6.89075,7.42556 12.01313,7.42556h17.54669v5.375c0,4.44512 3.61738,8.0625 8.0625,8.0625c4.44513,0 8.0625,-3.61738 8.0625,-8.0625v-5.375h21.5v5.375c0,4.44512 3.61738,8.0625 8.0625,8.0625c4.44512,0 8.0625,-3.61738 8.0625,-8.0625v-5.375h17.54669c5.11969,0 9.72338,-2.84606 12.01313,-7.42556l8.06519,-16.12769v58.49075c0,4.44513 -3.61737,8.0625 -8.0625,8.0625z" fill="url(#color-2_43592_gr2)"></path><path d="M69.875,61.8125h32.25v5.375h-32.25z" fill="url(#color-3_43592_gr3)"></path></g><path d="" fill="none"></path></g></g></svg>